<svg version="1.1" xmlns="http://www.w3.org/2000/svg" viewBox="0 0 326 427" width="326" height="427">
  <!-- svg-source:excalidraw -->
  
  <defs>
    <style>
      @font-face {
        font-family: "Virgil";
        src: url("https://excalidraw.com/Virgil.woff2");
      }
      @font-face {
        font-family: "Cascadia";
        src: url("https://excalidraw.com/Cascadia.woff2");
      }
    </style>
  </defs>
  <rect x="0" y="0" width="326" height="427" fill="#ffffff"></rect><g stroke-linecap="round" transform="translate(10 10) rotate(0 153 203.5)"><path d="M-0.75 -0.11 C102.84 1.72, 206.81 0.1, 304.81 -1.04 M0.51 -0.21 C117.67 0.55, 237.01 0.15, 306.63 -0.68 M306.42 0.35 C308.59 143.11, 307.54 286.96, 306.47 408.04 M305.99 -0.1 C307.74 148.62, 307.42 296.77, 306.54 407.38 M305.55 406.22 C190.58 405.06, 76.5 405.04, -0.86 407.87 M305.46 406.61 C193.18 407.18, 80.67 407.79, 0.09 406.35 M-1.05 407.54 C-2.85 280.35, -2.82 154.81, 0.57 0.16 M0.23 406.48 C-2.05 281.63, -2.24 155.63, -0.24 -0.43" stroke="#000000" stroke-width="1" fill="none"></path></g><g stroke-linecap="round" transform="translate(34 115) rotate(0 129.5 16)"><path d="M1.26 1.53 C91.55 -1.7, 180.99 0.77, 257.66 0.08 M-0.62 0.47 C66.4 0.42, 133.63 1.39, 259.39 -0.16 M258.56 -0.68 C260.72 8.38, 257.43 13.47, 258.2 32.98 M258.63 -0.22 C258.44 12.33, 258.54 26.58, 258.14 31.33 M259.27 33.52 C163.18 30.77, 66.82 29.42, -0.26 33.56 M258.81 31.96 C178.06 31.03, 97.45 30.69, 0.6 31.34 M-1.09 30.37 C-0.56 23.53, -1.85 13.24, -0.54 -1.46 M-0.36 32.46 C0.6 24.63, 0.17 16.73, 0.63 0.36" stroke="#000000" stroke-width="1" fill="none"></path></g><g stroke-linecap="round" transform="translate(206 309) rotate(0 18.5 19)"><path d="M0.05 -1.66 C14.29 1.94, 29.48 1.95, 35.52 -0.47 M0.35 0.27 C11.67 -1.09, 22.04 -0.15, 36.85 -0.55 M35.19 1.58 C36.36 6.85, 35.71 18.4, 36.79 37.28 M37.45 0.11 C37.97 13.52, 36.54 27.28, 36.49 37.64 M35.04 36.79 C29.32 36.53, 18.82 37.21, -1.4 37.14 M36.13 38.66 C24.98 37.92, 14.75 37.4, -0.21 37.88 M1.01 38.55 C1.51 23.74, 1.87 9.73, -0.43 -1.97 M0.57 38.97 C0.6 29.43, -0.89 20.74, -1 0.15" stroke="#000000" stroke-width="1" fill="none"></path></g><g stroke-linecap="round" transform="translate(156.5 361) rotate(0 18.5 19)"><path d="M0.73 -1.59 C14.71 -1.25, 24.82 -1.5, 35.79 -1.39 M-0.61 -0.33 C7.21 -0.9, 14.52 -0.21, 36.81 -0.64 M37.3 -0.32 C36.51 7.66, 37 18.12, 35.23 38.93 M37.43 0.77 C38.07 13.1, 36.12 25.79, 37.77 37.72 M36.32 36.81 C22.19 36.34, 10.87 39.97, -0.67 38.56 M37.37 37.26 C25.45 38.26, 15.27 38.25, -0.67 38.88 M1.08 38.64 C0.29 24.6, -0.46 16.78, 0.47 0.79 M0.99 37.03 C-0.7 25.41, -0.29 12.49, 0.36 -0.4" stroke="#000000" stroke-width="1" fill="none"></path></g><g stroke-linecap="round" transform="translate(38.5 160) rotate(0 18.5 19)"><path d="M-1.59 1.93 C10.5 -0.86, 21.77 -1.35, 35.61 -1.96 M-0.33 -0.27 C8.17 -0.2, 17.72 0.03, 36.36 -0.87 M36.68 -0.74 C36.2 13.66, 38.58 26.04, 37.93 39.01 M37.77 0.97 C37.01 11.46, 36.39 25.66, 36.72 38.57 M35.81 36.4 C20.33 38.17, 9.28 37.2, 0.56 37.98 M36.26 37.52 C25.82 38.55, 14.32 37.46, 0.88 38.03 M0.64 38.54 C-2.19 23.88, 1.48 10.65, 0.79 0.68 M-0.97 37.61 C0.12 23.59, -0.11 9.52, -0.4 0.62" stroke="#000000" stroke-width="1" fill="none"></path></g><g stroke-linecap="round" transform="translate(95.5 161) rotate(0 18.5 19)"><path d="M1.93 -1.02 C12.71 -0.97, 25.65 -1.1, 35.04 -1.21 M-0.27 -0.7 C12.66 0.11, 25.98 -0.51, 36.13 0.66 M36.26 -0.43 C36.81 9.65, 35.29 16.33, 38.01 38.55 M37.97 -0.22 C36.18 12.79, 37.94 26.96, 37.57 38.97 M35.4 36.01 C22.9 39.42, 7.53 38.34, -0.02 38.2 M36.52 38.29 C26.61 38, 14.72 38.61, 0.03 38.66 M0.54 36.1 C-0.41 25.48, 0.27 10.2, 0.68 1.59 M-0.39 38.11 C-0.36 26.63, -0.01 15.09, 0.62 0.58" stroke="#000000" stroke-width="1" fill="none"></path></g><g stroke-linecap="round" transform="translate(153.5 210) rotate(0 18.5 19)"><path d="M-1.02 -0.73 C11.18 -1.57, 23.5 -2.32, 35.79 1.07 M-0.7 -0.43 C8.84 -0.09, 17.08 -0.77, 37.66 -0.97 M36.57 -0.25 C38.89 10.21, 37.87 24.96, 37.55 39.17 M36.78 -0.98 C36.46 13.79, 37.01 26.6, 37.97 38.89 M35.01 38.3 C28.8 37.03, 17.88 37.69, 0.2 37.84 M37.29 38.41 C24.82 37.15, 12.96 37.85, 0.66 38.76 M-1.9 37.79 C1.65 25.02, 0.67 11.77, 1.59 -0.08 M0.11 38.01 C0.25 23.2, -0.03 8.29, 0.58 0.6" stroke="#000000" stroke-width="1" fill="none"></path></g><g stroke-linecap="round" transform="translate(39.5 313) rotate(0 18.5 19)"><path d="M-0.73 -1.27 C6.94 -1.2, 14.35 -1.02, 38.07 -1.21 M-0.43 -0.02 C9.67 -0.38, 18.85 0.92, 36.03 0.15 M36.75 1.95 C35.09 11.73, 37.87 22.15, 38.17 38.85 M36.02 -0.83 C38.14 14.03, 37.94 29.59, 37.89 37.66 M37.3 39.64 C27.43 38.19, 19.18 37.84, -0.16 38.74 M37.41 38.28 C27.98 38.99, 20.33 38.77, 0.76 38.54 M-0.21 39.77 C0.37 26.17, 0.58 14.35, -0.08 1.98 M0.01 37.88 C0.51 29.9, 0.77 23.18, 0.6 0.64" stroke="#000000" stroke-width="1" fill="none"></path></g><g stroke-linecap="round" transform="translate(37.5 212) rotate(0 18.5 19)"><path d="M-1.27 -1.21 C13.28 -1.83, 28.14 1.21, 35.79 -0.67 M-0.02 -0.19 C9.48 -0.71, 20.9 -0.81, 37.15 -0.16 M38.95 -1.77 C37.85 11.01, 37.47 21.18, 37.85 39.53 M36.17 0.77 C36.63 15.65, 37.89 31.05, 36.66 37.41 M38.64 37.33 C29.41 38.04, 20.91 37.89, 0.74 36.51 M37.28 37.33 C28.56 38.18, 19.02 38.91, 0.54 38.32 M1.77 38.47 C1.15 26.26, 1.95 13.07, 1.98 -1.95 M-0.12 38.36 C-0.44 28.72, 0.54 18.78, 0.64 0.96" stroke="#000000" stroke-width="1" fill="none"></path></g><g stroke-linecap="round" transform="translate(99.5 365) rotate(0 18.5 19)"><path d="M-1.21 -1.39 C7.26 -0.97, 19.5 -0.98, 36.33 -0.53 M-0.19 -0.64 C7.65 0.66, 16.06 0.16, 36.84 -0.37 M35.23 0.93 C37.96 11.13, 38.12 22.02, 38.53 39.94 M37.77 -0.28 C37.2 11.54, 37.52 20.81, 36.41 37.2 M36.33 38.56 C29.57 38.51, 22.01 39.04, -1.49 37.04 M36.33 38.88 C24.84 38.76, 13.39 38.64, 0.32 38.27 M0.47 38.79 C0.72 31.8, -0.04 24.41, -1.95 -0.79 M0.36 37.6 C0.62 26.78, 0.59 15.03, 0.96 -0.41" stroke="#000000" stroke-width="1" fill="none"></path></g><g stroke-linecap="round" transform="translate(205.5 362) rotate(0 44.5 19)"><path d="M-1.39 -1.96 C22.25 1.61, 45.7 -0.13, 88.47 -1.4 M-0.64 -0.87 C23.54 -0.8, 45.92 0.01, 88.63 -0.21 M89.93 1.01 C89.92 12.1, 90.22 23.39, 90.94 37.57 M88.72 0.57 C89.65 8.56, 88.34 14.73, 88.2 37 M89.56 37.98 C61.18 37.54, 33.68 36.21, -0.96 38.59 M89.88 38.03 C59.31 38.16, 28.85 37.72, 0.27 37.05 M0.79 38.68 C1.25 26.91, 1.65 14.04, -0.79 0.21 M-0.4 38.62 C0.63 27.14, 0.69 16.06, -0.41 -0.69" stroke="#000000" stroke-width="1" fill="none"></path></g><g stroke-linecap="round" transform="translate(251.5 215) rotate(0 18.5 19)"><path d="M-1.21 1.07 C7.64 -0.31, 17.18 -1.03, 36.14 -0.03 M0.66 -0.97 C10.54 0.16, 20.41 0.11, 36.88 0.98 M37.55 1.17 C38.03 9.57, 39.11 15.64, 35.03 36.33 M37.97 0.89 C36.55 13.75, 36.09 27.69, 37.15 38.82 M37.2 37.84 C27.87 36.51, 16.32 38.59, 0.82 38.56 M37.66 38.76 C28.93 38.33, 20.05 37.06, -0.1 38.89 M1.59 37.92 C1.83 23.75, -0.94 13.61, 0.03 -0.24 M0.58 38.6 C0.79 26.18, -0.26 11.74, -0.31 -0.83" stroke="#000000" stroke-width="1" fill="none"></path></g><g stroke-linecap="round" transform="translate(257.5 311) rotate(0 18.5 19)"><path d="M1.07 -1.21 C7.85 -0.31, 15.65 -0.63, 36.97 -0.38 M-0.97 0.15 C8.58 -0.61, 17.26 -0.37, 37.98 -0.88 M38.17 0.85 C38.72 15.1, 36.76 24.36, 35.33 39.55 M37.89 -0.34 C36.62 9.52, 36.22 20.79, 37.82 37.66 M36.84 38.74 C23.39 37.08, 13.33 38.86, 0.56 36.65 M37.76 38.54 C22.96 38.51, 7.33 38.14, 0.89 38.24 M-0.08 39.98 C-2.07 24.31, 0.08 12.22, -0.24 0.73 M0.6 38.64 C0.73 27.7, -0.92 17.91, -0.83 -0.88" stroke="#000000" stroke-width="1" fill="none"></path></g><g stroke-linecap="round" transform="translate(96.5 313) rotate(0 18.5 19)"><path d="M-1.21 -0.67 C6.94 -1.59, 14.09 -0.23, 36.62 -1.28 M0.15 -0.16 C7.51 0.15, 15.62 1.34, 36.12 0.46 M37.85 1.53 C39.04 12.88, 35.14 24.96, 38.55 37.43 M36.66 -0.59 C36.57 12.58, 37.52 27.97, 36.66 38.28 M37.74 36.51 C24.97 38.56, 15.68 38.53, -1.35 39.76 M37.54 38.32 C26.07 37.33, 14.51 39.17, 0.24 38.4 M1.98 36.05 C-1.09 25.52, -0.27 12.37, 0.73 -0.8 M0.64 38.96 C-0.63 23.55, -0.53 9.63, -0.88 0.01" stroke="#000000" stroke-width="1" fill="none"></path></g><g stroke-linecap="round" transform="translate(95.5 212) rotate(0 18.5 19)"><path d="M-0.67 -0.53 C7.47 -0.63, 17.7 -0.16, 35.72 -1.74 M-0.16 -0.37 C13.32 -0.18, 28.05 -0.94, 37.46 0.5 M38.53 1.94 C36.79 10.47, 35.55 26.43, 36.43 39.14 M36.41 -0.8 C36.34 15.23, 38.16 29.82, 37.28 37.99 M35.51 37.04 C26.11 38.96, 14.6 36.79, 1.76 38.05 M37.32 38.27 C22.5 38.1, 10.79 38.44, 0.4 38.34 M-1.95 37.21 C0.23 23.61, -0.23 9.89, -0.8 1.25 M0.96 37.59 C-0.91 24.08, -1.06 9.9, 0.01 0.47" stroke="#000000" stroke-width="1" fill="none"></path></g><g stroke-linecap="round" transform="translate(38.5 261) rotate(0 18.5 19)"><path d="M-0.53 -1.4 C12.23 0.09, 25.78 -1.15, 35.26 1.32 M-0.37 -0.21 C7.38 1.03, 14.11 0.52, 37.5 0.27 M38.94 -0.43 C35.2 11.96, 38.71 26.68, 38.14 39.94 M36.2 -1 C37.02 15.61, 36.54 29.86, 36.99 38.1 M36.04 38.59 C27.02 38.28, 14.05 39.49, 0.05 39.32 M37.27 37.05 C22.98 39.01, 9.4 38.51, 0.34 38.8 M-0.79 38.21 C-0.35 26.5, 0.35 14.7, 1.25 1.16 M-0.41 37.31 C-0.55 23.5, -1.12 10.68, 0.47 0.34" stroke="#000000" stroke-width="1" fill="none"></path></g><g stroke-linecap="round" transform="translate(95.5 261) rotate(0 18.5 19)"><path d="M-1.4 -0.86 C8.83 -0.29, 16.44 -1.65, 38.32 -1.95 M-0.21 -0.12 C12.64 -0.75, 23.79 0.64, 37.27 0.59 M36.57 -1.97 C35.62 14.56, 36.72 27.17, 38.94 39.78 M36 0.15 C37.6 9.77, 37.05 20.2, 37.1 37.92 M37.59 38.82 C25.1 36.48, 13.84 37.87, 1.32 39.52 M36.05 37.9 C24.78 38.34, 11.19 38.44, 0.8 37.96 M0.21 38.03 C0.13 23.56, -0.43 8.91, 1.16 1.19 M-0.69 37.69 C-1.2 23.28, -0.35 10.78, 0.34 0.16" stroke="#000000" stroke-width="1" fill="none"></path></g><g stroke-linecap="round" transform="translate(152.5 312) rotate(0 18.5 19)"><path d="M-0.86 -0.03 C9.48 -1.02, 17.98 1.58, 35.05 0.3 M-0.12 0.98 C9.63 0.54, 21.53 0.35, 37.59 0.43 M35.03 -1.67 C38.92 13.75, 38.51 30.56, 38.78 37.32 M37.15 0.82 C36.36 9.42, 36.69 18.39, 36.92 38.37 M37.82 38.56 C27.3 39.87, 20.35 39.43, 1.52 39.08 M36.9 38.89 C24.95 38.04, 12.76 38.44, -0.04 38.99 M0.03 37.76 C0.88 29.5, 1.4 23.76, 1.19 1.29 M-0.31 37.17 C-0.72 22.95, 0.62 8.21, 0.16 -0.33" stroke="#000000" stroke-width="1" fill="none"></path></g><g stroke-linecap="round" transform="translate(149.5 261) rotate(0 18.5 19)"><path d="M-0.03 -0.38 C8.84 -1.59, 21.55 -1.79, 37.3 -0.32 M0.98 -0.88 C10.2 0.55, 19.75 0.63, 37.43 0.77 M35.33 1.55 C36.35 16.22, 38.85 31.94, 36.32 36.81 M37.82 -0.34 C36.9 8.36, 36.72 16.65, 37.37 37.26 M37.56 36.65 C29.44 38.2, 19.68 39.68, 1.08 38.64 M37.89 38.24 C25.3 38.3, 13.6 37.92, 0.99 37.03 M-0.24 38.73 C-0.84 29.34, 1.12 19.38, 1.29 1.93 M-0.83 37.12 C0.27 28.62, 0.6 18.47, -0.33 0.97" stroke="#000000" stroke-width="1" fill="none"></path></g><g transform="translate(44.5 318) rotate(0 13.5 14)"><text x="13.5" y="19" font-family="Virgil, Segoe UI Emoji" font-size="20px" fill="#000000" text-anchor="middle" style="white-space: pre;" direction="ltr">1</text></g><g transform="translate(101.5 319) rotate(0 13.5 14)"><text x="13.5" y="19" font-family="Virgil, Segoe UI Emoji" font-size="20px" fill="#000000" text-anchor="middle" style="white-space: pre;" direction="ltr">2</text></g><g transform="translate(157.5 318) rotate(0 13.5 14)"><text x="13.5" y="19" font-family="Virgil, Segoe UI Emoji" font-size="20px" fill="#000000" text-anchor="middle" style="white-space: pre;" direction="ltr">3</text></g><g transform="translate(43.5 267) rotate(0 13.5 14)"><text x="13.5" y="19" font-family="Virgil, Segoe UI Emoji" font-size="20px" fill="#000000" text-anchor="middle" style="white-space: pre;" direction="ltr">4</text></g><g transform="translate(100.5 267) rotate(0 13.5 14)"><text x="13.5" y="19" font-family="Virgil, Segoe UI Emoji" font-size="20px" fill="#000000" text-anchor="middle" style="white-space: pre;" direction="ltr">5</text></g><g transform="translate(154.5 267) rotate(0 13.5 14)"><text x="13.5" y="19" font-family="Virgil, Segoe UI Emoji" font-size="20px" fill="#000000" text-anchor="middle" style="white-space: pre;" direction="ltr">6</text></g><g transform="translate(42.5 218) rotate(0 13.5 14)"><text x="13.5" y="19" font-family="Virgil, Segoe UI Emoji" font-size="20px" fill="#000000" text-anchor="middle" style="white-space: pre;" direction="ltr">7</text></g><g transform="translate(100.5 218) rotate(0 13.5 14)"><text x="13.5" y="19" font-family="Virgil, Segoe UI Emoji" font-size="20px" fill="#000000" text-anchor="middle" style="white-space: pre;" direction="ltr">8</text></g><g transform="translate(158.5 216) rotate(0 13.5 14)"><text x="13.5" y="19" font-family="Virgil, Segoe UI Emoji" font-size="20px" fill="#000000" text-anchor="middle" style="white-space: pre;" direction="ltr">9</text></g><g transform="translate(104.5 371) rotate(0 13.5 14)"><text x="13.5" y="19" font-family="Virgil, Segoe UI Emoji" font-size="20px" fill="#000000" text-anchor="middle" style="white-space: pre;" direction="ltr">0</text></g><g transform="translate(210.5 367) rotate(0 39.5 14)"><text x="39.5" y="19" font-family="Virgil, Segoe UI Emoji" font-size="20px" fill="#000000" text-anchor="middle" style="white-space: pre;" direction="ltr">=</text></g><g transform="translate(100.5 167) rotate(0 13.5 14)"><text x="13.5" y="19" font-family="Virgil, Segoe UI Emoji" font-size="20px" fill="#000000" text-anchor="middle" style="white-space: pre;" direction="ltr">x^</text></g><g transform="translate(43.5 166) rotate(0 13.5 14)"><text x="13.5" y="19" font-family="Virgil, Segoe UI Emoji" font-size="20px" fill="#000000" text-anchor="middle" style="white-space: pre;" direction="ltr">√</text></g><g transform="translate(161.5 367) rotate(0 13.5 14)"><text x="13.5" y="19" font-family="Virgil, Segoe UI Emoji" font-size="20px" fill="#000000" text-anchor="middle" style="white-space: pre;" direction="ltr">.</text></g><g transform="translate(211 315) rotate(0 13.5 14)"><text x="13.5" y="19" font-family="Virgil, Segoe UI Emoji" font-size="20px" fill="#000000" text-anchor="middle" style="white-space: pre;" direction="ltr">+</text></g><g transform="translate(262.5 316) rotate(0 13.5 14)"><text x="13.5" y="19" font-family="Virgil, Segoe UI Emoji" font-size="20px" fill="#000000" text-anchor="middle" style="white-space: pre;" direction="ltr">-</text></g><g transform="translate(256.5 221) rotate(0 13.5 14)"><text x="13.5" y="19" font-family="Virgil, Segoe UI Emoji" font-size="20px" fill="#000000" text-anchor="middle" style="white-space: pre;" direction="ltr">&lt;&lt;</text></g><g stroke-linecap="round" transform="translate(209.5 163) rotate(0 39.5 19.5)"><path d="M-1.53 -1.43 C18.78 0.6, 38.47 -1.2, 80.72 -1.69 M0.26 0.44 C27.16 -0.84, 51.61 -0.52, 79.75 -0.96 M80.72 -0.93 C78.74 12.7, 79.87 22.47, 77.18 40.34 M78.16 0.72 C79.6 10.68, 78.65 20.72, 78.62 38.79 M78.43 39.53 C62.39 37.04, 44.68 37.15, 0.78 40.14 M79.67 38.41 C56.6 38.92, 33.12 39.18, -0.48 38.23 M-0.91 39.93 C0.98 31.22, -0.65 21.46, -0.81 1.02 M0.2 38.62 C-0.12 24.12, 0 9.55, 0.41 0.88" stroke="#000000" stroke-width="1" fill="none"></path></g><g stroke-linecap="round" transform="translate(42.5 363) rotate(0 18.5 19)"><path d="M-1.43 -0.25 C15.97 0.7, 28.97 2.01, 35.31 0.63 M0.44 0.97 C10.9 -0.86, 22.7 0.65, 36.04 -0.1 M36.07 -0.5 C38.71 14.36, 37.16 25.65, 38.34 37.22 M37.72 0.47 C37.82 12.13, 37.69 24.82, 36.79 37.12 M37.53 38.1 C27.86 37, 20.37 38.67, 1.14 37.7 M36.41 38.13 C27.86 37.43, 18.95 37.77, -0.77 37.24 M0.93 39.3 C1 23.09, -0.04 8.02, 1.02 1.47 M-0.38 37.62 C-0.62 28.91, -0.64 20.78, 0.88 0.28" stroke="#000000" stroke-width="1" fill="none"></path></g><g stroke-linecap="round" transform="translate(252.5 264) rotate(0 18.5 19)"><path d="M-0.25 1.18 C14.24 -0.35, 29.38 -1.43, 37.63 0.21 M0.97 -0.58 C11.56 -0.43, 25.39 -1.12, 36.9 0.61 M36.5 1.39 C37.95 14.47, 35.51 30.62, 36.22 38.63 M37.47 0.5 C36.21 14.99, 36.3 29.05, 36.12 37.05 M37.1 36.45 C26.97 36.66, 19.49 39.24, -0.3 36.96 M37.13 38.03 C25.6 38.07, 15.35 37.01, -0.76 38.84 M1.3 38.95 C-0.15 26.95, -0.63 17.09, 1.47 -1.36 M-0.38 37.68 C-0.34 23.19, 0.34 9.94, 0.28 0.77" stroke="#000000" stroke-width="1" fill="none"></path></g><g transform="translate(214.5 168.5) rotate(0 34.5 14)"><text x="34.5" y="19" font-family="Virgil, Segoe UI Emoji" font-size="20px" fill="#000000" text-anchor="middle" style="white-space: pre;" direction="ltr">C</text></g><g transform="translate(47.5 369) rotate(0 13.5 14)"><text x="13.5" y="19" font-family="Virgil, Segoe UI Emoji" font-size="20px" fill="#000000" text-anchor="middle" style="white-space: pre;" direction="ltr">-x</text></g><g transform="translate(257.5 270) rotate(0 13.5 14)"><text x="13.5" y="19" font-family="Virgil, Segoe UI Emoji" font-size="20px" fill="#000000" text-anchor="middle" style="white-space: pre;" direction="ltr">÷</text></g><g stroke-linecap="round" transform="translate(204.5 262) rotate(0 18.5 19)"><path d="M-1.47 0.24 C10.72 1.94, 19.97 -0.54, 37.89 1.71 M0.8 0.29 C11.04 1.2, 22.04 1.35, 37.81 -0.34 M35.11 0.12 C37.07 15.11, 36.01 31.93, 37.92 36.18 M37.55 -0.23 C36.59 14.71, 36.9 27, 36.69 37.78 M37.37 36.36 C23.2 36.25, 13.45 35.9, 1.68 36.1 M37.01 37.6 C23.93 38.45, 10.01 38.8, -0.72 38.59 M-1.28 37.19 C1.09 26.37, -1.98 13.43, -1.32 1.18 M0.15 37.73 C-0.63 28.65, -0.33 18.58, 0.17 0.39" stroke="#000000" stroke-width="1" fill="none"></path></g><g transform="translate(209.5 267) rotate(0 13.5 14)"><text x="13.5" y="19" font-family="Virgil, Segoe UI Emoji" font-size="20px" fill="#000000" text-anchor="middle" style="white-space: pre;" direction="ltr">x</text></g><g stroke-linecap="round" transform="translate(31.5 23) rotate(0 129.5 16)"><path d="M-0.3 1.48 C103.84 -1.59, 207.29 -2.35, 259.43 -0.8 M0.07 -0.71 C52.15 -0.27, 104.68 -1, 258.37 -0.44 M260.4 1.64 C259.57 10.68, 257.5 20.28, 259.59 33.07 M259.19 -1 C259.94 11.8, 258.38 25.15, 258.08 32.23 M259.67 31.77 C206.26 32.3, 152.07 33.49, 1.34 31.92 M259.57 32.73 C206.95 33.98, 153.63 34.27, 0.09 32.68 M1.58 30.94 C0.95 22.27, 0.45 16.17, 1.46 0.13 M-0.79 32.43 C-0.68 21.66, 0.34 10.84, 0.72 0.38" stroke="#000000" stroke-width="1" fill="none"></path></g><g stroke-linecap="round" transform="translate(80.5 68) rotate(0 104.49999999999994 16.5)"><path d="M1.63 0.66 C59.15 1.24, 118.29 0.82, 208.11 -1.76 M-0.78 0.19 C71.52 0.64, 141.38 -0.86, 208.52 0.35 M210.64 0.74 C208.92 6.77, 207.64 16.78, 210.07 34.88 M208 0.73 C208.23 11.22, 208.97 23.18, 209.23 32.08 M208.75 34.11 C145.36 34.4, 82.96 35.26, -0.09 31.29 M209.8 33.73 C157.86 34.36, 106.63 34.41, 0.75 32.57 M-1.06 33.65 C-1.66 26.35, 0.28 20.86, 0.13 0.83 M0.43 32.48 C0.31 21.92, 0.42 10.56, 0.38 0.15" stroke="#000000" stroke-width="1" fill="none"></path></g><g stroke-linecap="round" transform="translate(35.5 71) rotate(0 16 15.5)"><path d="M1.01 -1.89 C13.08 -0.85, 23.1 0.91, 33.01 0.18 M0.91 0.05 C5.99 -0.85, 13.96 -0.86, 32.34 0.7 M30.67 -1.47 C32.71 12.91, 34 24.98, 32.25 31.39 M31.17 -0.08 C31.31 6.43, 31.3 12.45, 32.11 31.42 M32.7 32.58 C24.53 30.91, 11.78 29.95, 1.55 32.42 M32.05 31.82 C19.61 32, 6.51 30.21, -0.08 31.79 M0.15 31.25 C1.36 23.47, 0.73 16.7, 1.66 -1.57 M0.5 31.69 C0.88 20.73, 0.32 10.36, -0.25 0.03" stroke="#000000" stroke-width="1" fill="none"></path></g></svg>